<svg width="409" height="147" viewBox="0 0 409 147" fill="none" xmlns="http://www.w3.org/2000/svg">
<path d="M84.1317 20.7664H398.575C401.339 20.7664 403.99 21.862 405.944 23.8122C407.899 25.7625 408.997 28.4076 408.997 31.1657V118.628C408.997 119.293 408.732 119.931 408.26 120.402C407.789 120.872 407.149 121.137 406.482 121.137H84.1317C83.4648 121.137 82.8252 120.872 82.3537 120.402C81.8821 119.931 81.6172 119.293 81.6172 118.628V23.2753C81.6172 22.6099 81.8821 21.9717 82.3537 21.5012C82.8252 21.0307 83.4648 20.7664 84.1317 20.7664Z" fill="#961B1E"/>
<path d="M170.305 29.9229V60.1389C170.187 78.3757 161.277 88.5474 143.574 90.6538H117.137L123.159 77.4642H142.097C150.357 77.4251 154.841 71.7115 155.55 60.3235L155.491 42.9982H117.131V29.9258L170.305 29.9229Z" fill="white"/>
<path d="M214.981 53.5706C225.36 55.3566 230.592 60.9256 230.678 70.2775V71.9922C230.6 83.1301 225.411 89.3507 215.11 90.6541H177.622L183.465 77.523H211.438C214.466 76.9974 215.98 75.0317 215.982 71.6258C215.982 68.6694 214.37 66.9107 211.144 66.3499H193.32C182.941 64.5679 177.708 59.0155 177.622 49.6929V47.99C177.7 37.2917 182.89 31.2733 193.191 29.9348H230.737L224.777 43.0072H196.616C193.704 43.4527 192.268 45.3169 192.309 48.5996C192.309 51.558 193.922 53.2189 197.147 53.5824L214.981 53.5706Z" fill="white"/>
<path d="M271.045 53.5706C281.424 55.3566 286.656 60.9256 286.74 70.2775V71.9922C286.664 83.1301 281.474 89.3507 271.171 90.6541H233.687L239.532 77.523H267.503C270.53 76.9974 272.045 75.0317 272.047 71.6258C272.047 68.6694 270.434 66.9107 267.209 66.3499H249.384C239.005 64.5679 233.773 59.0155 233.687 49.6929V47.99C233.765 37.2917 238.954 31.2733 249.255 29.9348H286.796L280.833 43.0072H252.692C249.778 43.4527 248.341 45.3169 248.383 48.5996C248.383 51.558 249.996 53.2189 253.224 53.5824L271.045 53.5706Z" fill="white"/>
<path d="M327.109 53.5706C337.488 55.3566 342.721 60.9256 342.807 70.2775V71.9922C342.729 83.1301 337.539 89.3507 327.238 90.6541H289.75L295.596 77.523H323.569C326.597 76.9974 328.112 75.0317 328.114 71.6258C328.114 68.6694 326.5 66.9107 323.273 66.3499H305.451C295.062 64.5679 289.829 59.0155 289.75 49.6929V47.99C289.829 37.2917 295.018 31.2733 305.319 29.9348H342.854L336.894 43.0072H308.741C305.829 43.4527 304.394 45.3169 304.435 48.5996C304.435 51.558 306.048 53.2189 309.276 53.5824L327.109 53.5706Z" fill="white"/>
<path d="M345.759 90.6538V29.9229H360.446V77.4613H398.862L392.961 90.6509L345.759 90.6538Z" fill="white"/>
<path d="M77.2551 99.5261H409V122.699C409 125.02 408.076 127.246 406.431 128.887C404.786 130.529 402.555 131.451 400.229 131.451H77.2551V99.5261Z" fill="#FCDE4C"/>
<path d="M119.551 126.081C119.006 126.072 118.462 126.02 117.924 125.926C117.865 125.907 117.814 125.871 117.777 125.821C117.74 125.772 117.719 125.712 117.719 125.65V124.255C117.721 124.205 117.733 124.155 117.755 124.11C117.777 124.064 117.808 124.023 117.846 123.99C117.884 123.957 117.929 123.932 117.977 123.917C118.026 123.901 118.076 123.896 118.127 123.9H119.472C119.836 123.9 119.98 123.783 119.98 123.215V108.577C119.982 108.526 119.994 108.475 120.016 108.429C120.038 108.382 120.068 108.34 120.106 108.306C120.144 108.271 120.189 108.244 120.237 108.227C120.286 108.21 120.337 108.202 120.389 108.205H122.404C122.455 108.202 122.507 108.209 122.556 108.226C122.604 108.243 122.649 108.27 122.687 108.305C122.725 108.339 122.756 108.381 122.777 108.428C122.799 108.475 122.811 108.526 122.812 108.577V123.215C122.812 125.296 121.755 126.081 119.551 126.081Z" fill="#8A2827"/>
<path d="M119.552 126.668C118.953 126.66 118.357 126.602 117.769 126.492C117.585 126.439 117.424 126.329 117.309 126.177C117.194 126.025 117.132 125.841 117.131 125.65V124.255C117.133 124.128 117.161 124.002 117.213 123.886C117.264 123.769 117.338 123.664 117.431 123.576C117.524 123.489 117.633 123.42 117.753 123.375C117.872 123.33 117.999 123.31 118.127 123.314H119.393V108.577C119.394 108.449 119.421 108.322 119.472 108.204C119.523 108.086 119.597 107.979 119.689 107.889C119.782 107.8 119.892 107.73 120.012 107.684C120.132 107.637 120.26 107.615 120.389 107.619H122.404C122.533 107.615 122.661 107.637 122.781 107.684C122.901 107.73 123.011 107.8 123.103 107.889C123.196 107.979 123.27 108.086 123.321 108.204C123.372 108.322 123.399 108.449 123.4 108.577V123.215C123.4 125.536 122.142 126.668 119.552 126.668ZM118.306 125.395C118.719 125.453 119.135 125.486 119.552 125.495C121.526 125.495 122.225 124.909 122.225 123.215V108.791H120.568V123.215C120.568 124.059 120.201 124.487 119.472 124.487H118.297L118.306 125.395Z" fill="#8A2827"/>
<path d="M139.456 122.96C138.245 122.977 137.037 122.857 135.854 122.602C135.753 122.594 135.659 122.55 135.587 122.479C135.515 122.408 135.472 122.313 135.464 122.212V120.797C135.465 120.747 135.476 120.697 135.496 120.651C135.516 120.606 135.545 120.564 135.582 120.53C135.618 120.495 135.661 120.468 135.707 120.45C135.754 120.432 135.804 120.423 135.854 120.424H135.892C136.709 120.521 138.745 120.621 139.5 120.621C141.312 120.621 141.85 119.991 141.85 118.862C141.85 118.094 141.462 117.69 140.116 116.936L137.429 115.383C135.534 114.301 135.026 113.164 135.026 111.787C135.026 109.629 136.33 108.058 140.116 108.058C141.428 108.066 142.737 108.184 144.029 108.41C144.124 108.419 144.213 108.461 144.28 108.529C144.347 108.598 144.387 108.687 144.393 108.782V110.248C144.395 110.294 144.388 110.34 144.372 110.383C144.355 110.426 144.33 110.466 144.298 110.499C144.266 110.532 144.227 110.558 144.185 110.576C144.142 110.594 144.096 110.603 144.05 110.602H144.035C142.69 110.485 141.347 110.406 140.023 110.406C138.516 110.406 137.881 110.916 137.881 111.798C137.881 112.449 138.231 112.842 139.555 113.557L141.996 114.876C144.238 116.072 144.828 117.329 144.828 118.883C144.813 120.835 143.53 122.96 139.456 122.96Z" fill="#8A2827"/>
<path d="M139.456 123.543C138.202 123.561 136.951 123.438 135.725 123.177C135.492 123.142 135.279 123.026 135.124 122.85C134.968 122.673 134.881 122.447 134.876 122.212V120.797C134.877 120.67 134.904 120.544 134.953 120.427C135.003 120.31 135.075 120.204 135.166 120.115C135.257 120.026 135.365 119.956 135.483 119.908C135.601 119.861 135.727 119.837 135.854 119.838H135.963C136.78 119.938 138.792 120.032 139.488 120.032C141.25 120.032 141.25 119.404 141.25 118.859C141.25 118.466 141.186 118.223 139.814 117.441L137.123 115.89C135.235 114.811 134.427 113.583 134.427 111.787C134.427 109.817 135.414 107.472 140.105 107.472C141.46 107.48 142.812 107.603 144.147 107.839C144.373 107.875 144.579 107.99 144.729 108.162C144.879 108.335 144.964 108.554 144.969 108.782V110.248C144.972 110.371 144.949 110.494 144.903 110.608C144.858 110.722 144.789 110.827 144.703 110.914C144.616 111.002 144.512 111.071 144.398 111.118C144.284 111.166 144.162 111.19 144.038 111.189H143.944C142.475 111.06 141.171 110.995 139.984 110.995C138.431 110.995 138.431 111.54 138.431 111.801C138.431 112.062 138.431 112.308 139.794 113.035L142.237 114.354C144.438 115.527 145.378 116.881 145.378 118.877C145.401 119.953 144.972 123.543 139.456 123.543ZM136.051 122.045C137.171 122.279 138.312 122.388 139.456 122.371C143.762 122.371 144.226 119.911 144.226 118.853C144.226 117.567 143.797 116.479 141.706 115.363L139.259 114.044C137.949 113.343 137.279 112.801 137.279 111.778C137.279 111.039 137.634 109.799 140.008 109.799C141.162 109.799 142.411 109.858 143.827 109.975V108.952C142.604 108.749 141.368 108.641 140.128 108.63C135.625 108.63 135.625 110.995 135.625 111.772C135.625 112.903 135.984 113.862 137.734 114.861L140.425 116.415C141.823 117.212 142.449 117.754 142.449 118.848C142.449 120.43 141.485 121.192 139.512 121.192C138.821 121.192 137.023 121.11 136.063 121.016L136.051 122.045Z" fill="#8A2827"/>
<path d="M159.116 122.96C157.906 122.977 156.698 122.857 155.515 122.602C155.414 122.594 155.319 122.55 155.248 122.479C155.176 122.408 155.132 122.313 155.124 122.212V120.797C155.125 120.747 155.136 120.697 155.157 120.651C155.177 120.606 155.206 120.564 155.242 120.53C155.279 120.495 155.321 120.468 155.368 120.45C155.415 120.432 155.465 120.423 155.515 120.424H155.553C156.367 120.521 158.405 120.621 159.16 120.621C160.973 120.621 161.51 119.991 161.51 118.862C161.51 118.094 161.122 117.69 159.777 116.936L157.089 115.383C155.195 114.301 154.687 113.164 154.687 111.787C154.687 109.629 155.991 108.058 159.777 108.058C161.089 108.066 162.398 108.184 163.69 108.41C163.785 108.419 163.874 108.461 163.941 108.529C164.007 108.598 164.047 108.687 164.054 108.782V110.248C164.056 110.294 164.049 110.34 164.032 110.383C164.016 110.426 163.991 110.466 163.959 110.499C163.926 110.532 163.888 110.558 163.845 110.576C163.802 110.594 163.757 110.603 163.71 110.602H163.669C162.324 110.485 160.981 110.406 159.657 110.406C158.15 110.406 157.515 110.916 157.515 111.798C157.515 112.449 157.865 112.842 159.19 113.557L161.631 114.876C163.872 116.072 164.462 117.329 164.462 118.883C164.474 120.835 163.19 122.96 159.116 122.96Z" fill="#8A2827"/>
<path d="M159.116 123.543C157.863 123.561 156.611 123.438 155.386 123.177C155.153 123.142 154.94 123.026 154.784 122.85C154.629 122.673 154.541 122.447 154.537 122.212V120.797C154.538 120.67 154.564 120.544 154.614 120.427C154.664 120.31 154.736 120.204 154.827 120.115C154.918 120.026 155.025 119.956 155.143 119.908C155.261 119.861 155.387 119.837 155.515 119.838H155.623C156.44 119.938 158.452 120.032 159.148 120.032C160.911 120.032 160.911 119.404 160.911 118.859C160.911 118.466 160.846 118.223 159.474 117.441L156.784 115.89C154.895 114.811 154.087 113.583 154.087 111.787C154.087 109.817 155.074 107.472 159.765 107.472C161.121 107.48 162.473 107.603 163.807 107.839C164.033 107.875 164.239 107.99 164.389 108.162C164.539 108.335 164.624 108.554 164.63 108.782V110.248C164.632 110.371 164.61 110.494 164.564 110.608C164.518 110.722 164.45 110.827 164.363 110.914C164.276 111.002 164.173 111.071 164.059 111.118C163.944 111.166 163.822 111.19 163.699 111.189H163.605C162.136 111.06 160.832 110.995 159.645 110.995C158.091 110.995 158.091 111.54 158.091 111.801C158.091 112.062 158.091 112.308 159.454 113.035L161.898 114.354C164.098 115.527 165.038 116.881 165.038 118.877C165.062 119.953 164.633 123.543 159.116 123.543ZM155.712 122.045C156.831 122.279 157.973 122.388 159.116 122.371C163.422 122.371 163.887 119.911 163.887 118.853C163.887 117.567 163.458 116.479 161.366 115.363L158.919 114.044C157.609 113.343 156.939 112.801 156.939 111.778C156.939 111.039 157.295 109.799 159.668 109.799C160.823 109.799 162.071 109.858 163.487 109.975V108.952C162.265 108.749 161.028 108.641 159.789 108.63C155.286 108.63 155.286 110.995 155.286 111.772C155.286 112.903 155.644 113.862 157.395 114.861L160.085 116.415C161.484 117.212 162.109 117.754 162.109 118.848C162.109 120.43 161.146 121.192 159.172 121.192C158.482 121.192 156.684 121.11 155.723 121.016L155.712 122.045Z" fill="#8A2827"/>
<path d="M189.251 122.96C188.04 122.977 186.831 122.857 185.647 122.602C185.547 122.594 185.452 122.55 185.381 122.479C185.31 122.407 185.267 122.313 185.259 122.212V120.797C185.262 120.696 185.304 120.6 185.376 120.531C185.449 120.461 185.546 120.423 185.647 120.424H185.688C186.502 120.521 188.541 120.621 189.296 120.621C191.108 120.621 191.646 119.991 191.646 118.862C191.646 118.094 191.258 117.69 189.912 116.936L187.225 115.383C185.33 114.301 184.822 113.164 184.822 111.787C184.822 109.629 186.126 108.058 189.912 108.058C191.223 108.066 192.531 108.184 193.822 108.41C193.918 108.418 194.007 108.46 194.075 108.528C194.142 108.597 194.183 108.687 194.189 108.782V110.248C194.191 110.294 194.184 110.34 194.167 110.384C194.151 110.427 194.125 110.467 194.093 110.5C194.06 110.533 194.021 110.559 193.978 110.577C193.935 110.595 193.889 110.603 193.843 110.602H193.805C192.459 110.485 191.117 110.406 189.792 110.406C188.285 110.406 187.651 110.916 187.651 111.798C187.651 112.449 188 112.842 189.322 113.557L191.766 114.876C194.007 116.072 194.598 117.329 194.598 118.883C194.609 120.835 193.326 122.96 189.251 122.96Z" fill="#8A2827"/>
<path d="M189.251 123.543C187.998 123.561 186.747 123.439 185.521 123.177C185.288 123.142 185.075 123.026 184.919 122.85C184.764 122.673 184.676 122.447 184.672 122.212V120.797C184.674 120.541 184.778 120.296 184.961 120.116C185.144 119.937 185.391 119.837 185.647 119.838H185.747C186.564 119.938 188.576 120.032 189.272 120.032C191.034 120.032 191.034 119.404 191.034 118.859C191.034 118.466 190.97 118.223 189.598 117.441L186.907 115.89C185.018 114.811 184.211 113.583 184.211 111.787C184.211 109.817 185.195 107.472 189.889 107.472C191.258 107.475 192.624 107.595 193.972 107.83C194.198 107.867 194.404 107.981 194.554 108.154C194.704 108.326 194.789 108.545 194.794 108.774V110.239C194.796 110.362 194.774 110.485 194.727 110.599C194.681 110.714 194.613 110.818 194.526 110.906C194.439 110.993 194.335 111.063 194.221 111.11C194.106 111.157 193.984 111.181 193.86 111.18H193.769C192.3 111.051 190.996 110.986 189.809 110.986C188.256 110.986 188.256 111.532 188.256 111.793C188.256 112.053 188.256 112.3 189.619 113.026L192.063 114.345C194.263 115.518 195.203 116.872 195.203 118.868C195.197 119.953 194.768 123.543 189.251 123.543ZM185.847 122.045C186.966 122.279 188.108 122.388 189.251 122.371C193.558 122.371 194.022 119.911 194.022 118.853C194.022 117.567 193.593 116.479 191.501 115.363L189.055 114.044C187.742 113.343 187.075 112.801 187.075 111.778C187.075 111.039 187.43 109.799 189.804 109.799C190.955 109.799 192.204 109.858 193.622 109.975V108.952C192.4 108.749 191.163 108.641 189.924 108.63C185.421 108.63 185.421 110.995 185.421 111.772C185.421 112.903 185.779 113.862 187.527 114.861L190.218 116.415C191.619 117.212 192.245 117.754 192.245 118.848C192.245 120.43 191.278 121.192 189.307 121.192C188.617 121.192 186.816 121.11 185.859 121.016L185.847 122.045Z" fill="#8A2827"/>
<path d="M213.844 118.165H207.191V118.223C207.191 119.363 207.681 120.718 209.635 120.718C211.121 120.718 212.528 120.6 213.383 120.521H213.445C213.647 120.521 213.809 120.621 213.809 120.814V122.113C213.809 122.426 213.75 122.561 213.383 122.623C212.081 122.871 210.757 122.983 209.432 122.957C207.393 122.957 204.503 121.896 204.503 118.024V116.558C204.503 113.493 206.265 111.576 209.391 111.576C212.516 111.576 214.238 113.627 214.238 116.558V117.661C214.241 117.989 214.129 118.165 213.844 118.165ZM211.541 116.251C211.541 114.718 210.66 113.836 209.403 113.836C208.145 113.836 207.223 114.7 207.223 116.251V116.33H211.541V116.251Z" fill="#8A2827"/>
<path d="M209.444 123.543C206.9 123.543 203.927 122.098 203.927 118.027V116.561C203.927 113.123 206.025 110.992 209.403 110.992C212.704 110.992 214.837 113.179 214.837 116.561V117.663C214.853 117.801 214.838 117.941 214.795 118.073C214.752 118.205 214.681 118.326 214.587 118.428C214.493 118.53 214.378 118.61 214.249 118.664C214.121 118.718 213.983 118.743 213.844 118.739H207.831C207.99 119.657 208.598 120.12 209.646 120.12C211.03 120.12 212.346 120.017 213.342 119.926H213.456C213.578 119.916 213.7 119.932 213.815 119.972C213.93 120.012 214.036 120.075 214.126 120.158C214.215 120.24 214.286 120.34 214.335 120.452C214.384 120.563 214.408 120.684 214.408 120.806V122.113C214.422 122.245 214.409 122.378 214.37 122.505C214.331 122.631 214.267 122.749 214.181 122.851C214.096 122.952 213.99 123.035 213.872 123.095C213.754 123.155 213.624 123.191 213.492 123.2C212.158 123.455 210.801 123.57 209.444 123.543ZM209.403 112.171C206.671 112.171 205.102 113.774 205.102 116.567V118.033C205.102 122.168 208.718 122.377 209.444 122.377C210.714 122.405 211.985 122.3 213.233 122.063V121.131C212.243 121.219 210.977 121.31 209.646 121.31C207.749 121.31 206.615 120.158 206.615 118.229V117.584H213.665V116.573C213.653 113.815 212.07 112.171 209.403 112.171ZM212.129 116.904H206.636V116.251C206.636 114.457 207.749 113.249 209.403 113.249C211.056 113.249 212.129 114.457 212.129 116.251V116.904ZM207.855 115.732H210.912C210.766 114.885 210.234 114.41 209.403 114.41C209.023 114.388 208.65 114.513 208.362 114.76C208.073 115.006 207.891 115.355 207.855 115.732Z" fill="#8A2827"/>
<path d="M231.589 113.783C230.607 113.782 229.64 114.026 228.775 114.492V122.388C228.774 122.496 228.732 122.599 228.656 122.677C228.581 122.754 228.478 122.798 228.37 122.801H226.496C226.388 122.798 226.285 122.753 226.209 122.676C226.133 122.599 226.09 122.496 226.087 122.388V112.115C226.09 112.009 226.134 111.908 226.21 111.834C226.287 111.76 226.389 111.718 226.496 111.719H228.258C228.365 111.718 228.467 111.76 228.544 111.834C228.62 111.908 228.664 112.009 228.667 112.115V112.525C229.51 111.905 230.533 111.575 231.581 111.584C231.687 111.583 231.789 111.623 231.866 111.697C231.942 111.77 231.986 111.871 231.989 111.977V113.39C231.987 113.494 231.944 113.594 231.869 113.667C231.794 113.741 231.694 113.782 231.589 113.783Z" fill="#8A2827"/>
<path d="M228.37 123.388H226.496C226.232 123.383 225.98 123.276 225.794 123.089C225.608 122.903 225.503 122.651 225.5 122.388V112.115C225.501 111.985 225.527 111.857 225.577 111.737C225.628 111.618 225.701 111.509 225.794 111.418C225.886 111.327 225.996 111.255 226.116 111.206C226.237 111.157 226.366 111.132 226.496 111.133H228.258C228.422 111.133 228.584 111.173 228.729 111.25C228.874 111.327 228.998 111.439 229.089 111.575C229.861 111.188 230.714 110.988 231.577 110.989C231.84 110.988 232.092 111.09 232.279 111.273C232.466 111.457 232.573 111.707 232.576 111.968V113.381C232.573 113.643 232.466 113.893 232.279 114.076C232.092 114.259 231.84 114.362 231.577 114.36C230.809 114.357 230.05 114.524 229.354 114.849V122.379C229.355 122.642 229.252 122.895 229.068 123.084C228.884 123.272 228.633 123.381 228.37 123.388ZM226.675 122.215H228.188V114.131L228.511 113.967C229.404 113.49 230.397 113.227 231.41 113.199V112.173C230.551 112.199 229.72 112.486 229.028 112.994L228.088 113.698V112.305H226.675V122.215Z" fill="#8A2827"/>
<path d="M253.805 112.173L251.252 121.113C250.847 122.564 249.745 122.96 248.705 122.96C247.666 122.96 246.588 122.564 246.182 121.113L243.615 112.173C243.598 112.13 243.591 112.083 243.594 112.036C243.594 111.993 243.603 111.951 243.619 111.912C243.636 111.873 243.66 111.838 243.69 111.809C243.721 111.779 243.757 111.756 243.796 111.741C243.836 111.725 243.878 111.718 243.92 111.719H245.956C246.141 111.719 246.303 111.86 246.367 112.115L248.315 120.354C248.394 120.726 248.538 120.843 248.7 120.843C248.861 120.843 249.008 120.726 249.087 120.354L251.044 112.124C251.059 112.019 251.111 111.923 251.188 111.851C251.266 111.779 251.367 111.735 251.473 111.728H253.508C253.551 111.727 253.593 111.734 253.632 111.749C253.672 111.765 253.708 111.788 253.738 111.817C253.769 111.847 253.793 111.882 253.809 111.921C253.826 111.96 253.834 112.002 253.834 112.044C253.834 112.089 253.824 112.133 253.805 112.173Z" fill="#8A2827"/>
<path d="M248.691 123.543C247.108 123.543 246.012 122.737 245.601 121.272L243.045 112.367C242.996 112.229 242.981 112.08 243.001 111.935C243.021 111.789 243.075 111.651 243.159 111.53C243.243 111.41 243.354 111.311 243.484 111.242C243.614 111.173 243.759 111.135 243.906 111.133H245.942C246.177 111.139 246.403 111.227 246.582 111.38C246.761 111.533 246.881 111.743 246.923 111.974L248.685 119.431L250.448 111.98C250.493 111.747 250.616 111.536 250.798 111.382C250.98 111.228 251.208 111.14 251.446 111.133H253.485C253.632 111.135 253.777 111.173 253.906 111.242C254.036 111.311 254.148 111.41 254.232 111.53C254.316 111.651 254.37 111.789 254.39 111.935C254.41 112.08 254.395 112.229 254.346 112.367L251.787 121.274C251.393 122.737 250.289 123.543 248.691 123.543ZM244.25 112.305L246.732 120.952C247.005 121.922 247.613 122.371 248.691 122.371C249.769 122.371 250.406 121.908 250.671 120.955L253.156 112.305H251.593L249.652 120.48C249.466 121.33 248.92 121.421 248.691 121.421C248.462 121.421 247.916 121.33 247.73 120.468L245.795 112.305H244.25Z" fill="#8A2827"/>
<path d="M269.359 110.248H267.385C267.276 110.25 267.171 110.211 267.091 110.138C267.011 110.064 266.963 109.963 266.956 109.855V108.126C266.963 108.018 267.011 107.916 267.091 107.843C267.171 107.77 267.276 107.731 267.385 107.733H269.359C269.412 107.732 269.464 107.741 269.514 107.76C269.563 107.779 269.608 107.808 269.646 107.844C269.684 107.881 269.715 107.924 269.736 107.973C269.757 108.021 269.769 108.073 269.77 108.126V109.855C269.769 109.908 269.757 109.96 269.736 110.008C269.715 110.056 269.684 110.1 269.646 110.136C269.608 110.173 269.563 110.202 269.514 110.221C269.464 110.24 269.412 110.249 269.359 110.248ZM269.3 122.801H267.426C267.318 122.798 267.215 122.753 267.139 122.676C267.063 122.599 267.02 122.496 267.018 122.388V112.115C267.02 112.009 267.064 111.908 267.141 111.834C267.217 111.759 267.32 111.718 267.426 111.719H269.3C269.407 111.718 269.509 111.759 269.586 111.834C269.662 111.908 269.706 112.009 269.708 112.115V122.388C269.706 122.496 269.663 122.599 269.587 122.676C269.511 122.753 269.408 122.798 269.3 122.801Z" fill="#8A2827"/>
<path d="M269.3 123.388H267.426C267.162 123.384 266.91 123.277 266.724 123.09C266.538 122.903 266.433 122.651 266.43 122.388V112.115C266.431 111.985 266.457 111.857 266.508 111.737C266.558 111.618 266.632 111.509 266.724 111.418C266.817 111.327 266.926 111.255 267.047 111.206C267.167 111.157 267.296 111.132 267.426 111.133H269.3C269.43 111.132 269.559 111.157 269.68 111.206C269.8 111.255 269.91 111.327 270.002 111.418C270.094 111.509 270.168 111.618 270.218 111.737C270.269 111.857 270.295 111.985 270.296 112.115V122.388C270.294 122.651 270.188 122.903 270.002 123.09C269.816 123.277 269.564 123.384 269.3 123.388ZM267.605 122.215H269.121V112.305H267.605V122.215ZM269.368 110.834H267.394C267.129 110.838 266.874 110.737 266.683 110.554C266.493 110.37 266.383 110.119 266.377 109.855V108.126C266.386 107.863 266.497 107.613 266.687 107.43C266.876 107.248 267.13 107.146 267.394 107.147H269.368C269.63 107.145 269.882 107.247 270.07 107.431C270.257 107.614 270.363 107.864 270.367 108.126V109.855C270.365 109.985 270.338 110.114 270.286 110.234C270.235 110.354 270.16 110.462 270.066 110.553C269.973 110.644 269.862 110.716 269.741 110.764C269.619 110.812 269.49 110.836 269.359 110.834H269.368ZM267.552 109.662H269.171V108.319H267.532L267.552 109.662Z" fill="#8A2827"/>
<path d="M291.443 122.699C290.58 122.885 289.699 122.972 288.817 122.957C286.173 122.957 284.176 121.383 284.176 118.182V116.356C284.176 113.152 286.17 111.581 288.817 111.581C289.699 111.564 290.58 111.65 291.443 111.836C291.792 111.916 291.872 112.033 291.872 112.346V113.624C291.872 113.821 291.71 113.917 291.507 113.917H291.443C290.572 113.809 289.694 113.763 288.817 113.78C287.862 113.78 286.863 114.31 286.863 116.356V118.182C286.863 120.234 287.862 120.756 288.817 120.756C289.694 120.773 290.572 120.727 291.443 120.618H291.507C291.71 120.618 291.872 120.715 291.872 120.911V122.186C291.872 122.505 291.789 122.626 291.443 122.699Z" fill="#8A2827"/>
<path d="M288.817 123.543C285.586 123.543 283.588 121.491 283.588 118.185V116.359C283.588 113.053 285.591 110.998 288.817 110.998C289.749 110.979 290.68 111.07 291.59 111.271C291.849 111.299 292.087 111.428 292.252 111.63C292.417 111.832 292.496 112.09 292.471 112.349V113.627C292.471 113.749 292.447 113.869 292.398 113.981C292.349 114.092 292.278 114.193 292.189 114.275C292.099 114.358 291.993 114.421 291.878 114.461C291.763 114.501 291.641 114.516 291.519 114.507H291.387C290.539 114.399 289.684 114.354 288.829 114.372C288.491 114.372 287.463 114.372 287.463 116.362V118.188C287.463 120.175 288.491 120.175 288.829 120.175C289.683 120.192 290.539 120.148 291.387 120.043H291.519C291.641 120.034 291.763 120.049 291.878 120.089C291.993 120.129 292.099 120.192 292.189 120.275C292.278 120.357 292.349 120.458 292.398 120.569C292.447 120.681 292.471 120.801 292.471 120.923V122.198C292.495 122.457 292.416 122.716 292.251 122.918C292.087 123.12 291.849 123.25 291.59 123.279C290.679 123.474 289.748 123.562 288.817 123.543ZM288.817 112.171C286.241 112.171 284.763 113.698 284.763 116.359V118.185C284.763 120.846 286.232 122.371 288.817 122.371C289.645 122.384 290.473 122.307 291.284 122.139V121.233C290.465 121.325 289.641 121.363 288.817 121.348C288.053 121.348 286.276 121.055 286.276 118.188V116.362C286.276 113.507 288.038 113.199 288.817 113.199C289.641 113.184 290.465 113.223 291.284 113.317V112.408C290.473 112.237 289.646 112.158 288.817 112.171Z" fill="#8A2827"/>
<path d="M312.146 118.165H305.504V118.223C305.504 119.363 305.992 120.718 307.948 120.718C309.435 120.718 310.842 120.6 311.697 120.521H311.758C311.961 120.521 312.122 120.621 312.122 120.814V122.113C312.122 122.426 312.064 122.561 311.697 122.623C310.395 122.871 309.071 122.983 307.746 122.957C305.707 122.957 302.817 121.896 302.817 118.024V116.558C302.817 113.493 304.579 111.576 307.705 111.576C310.83 111.576 312.551 113.627 312.551 116.558V117.661C312.551 117.989 312.431 118.165 312.146 118.165ZM309.843 116.239C309.843 114.706 308.962 113.824 307.705 113.824C306.447 113.824 305.525 114.688 305.525 116.239V116.318H309.843V116.239Z" fill="#8A2827"/>
<path d="M307.746 123.543C305.202 123.543 302.229 122.098 302.229 118.027V116.561C302.229 113.123 304.327 110.992 307.705 110.992C311.006 110.992 313.139 113.179 313.139 116.561V117.663C313.155 117.801 313.14 117.941 313.097 118.073C313.054 118.205 312.983 118.326 312.889 118.428C312.795 118.53 312.68 118.61 312.551 118.664C312.423 118.718 312.285 118.743 312.146 118.739H306.133C306.292 119.657 306.9 120.12 307.948 120.12C309.332 120.12 310.648 120.017 311.644 119.926H311.758C311.88 119.916 312.002 119.932 312.117 119.972C312.232 120.012 312.338 120.075 312.428 120.158C312.517 120.24 312.588 120.34 312.637 120.452C312.686 120.563 312.71 120.684 312.71 120.806V122.113C312.724 122.245 312.711 122.378 312.672 122.505C312.633 122.631 312.569 122.749 312.483 122.851C312.398 122.952 312.292 123.035 312.174 123.095C312.055 123.155 311.926 123.191 311.794 123.2C310.46 123.455 309.103 123.57 307.746 123.543ZM307.705 112.171C304.97 112.171 303.404 113.774 303.404 116.567V118.033C303.404 122.168 307.02 122.377 307.746 122.377C309.016 122.405 310.287 122.3 311.535 122.063V121.131C310.545 121.219 309.279 121.31 307.948 121.31C306.051 121.31 304.917 120.158 304.917 118.229V117.584H311.967V116.573C311.964 113.815 310.372 112.171 307.705 112.171ZM310.431 116.904H304.938V116.251C304.938 114.457 306.048 113.249 307.705 113.249C309.361 113.249 310.431 114.457 310.431 116.251V116.904ZM306.157 115.732H309.214C309.068 114.885 308.536 114.41 307.705 114.41C307.325 114.388 306.952 114.513 306.664 114.76C306.375 115.006 306.193 115.355 306.157 115.732Z" fill="#8A2827"/>
<path d="M327.415 122.96C326.188 122.955 324.966 122.823 323.767 122.564C323.659 122.549 323.56 122.495 323.489 122.413C323.418 122.33 323.38 122.224 323.382 122.116V120.943C323.386 120.856 323.425 120.774 323.49 120.715C323.555 120.656 323.641 120.626 323.728 120.63H323.811C324.786 120.747 326.619 120.844 327.233 120.844C328.496 120.844 328.678 120.433 328.678 119.903C328.678 119.528 328.431 119.293 327.797 118.9L325.006 117.25C324.007 116.664 323.297 115.679 323.297 114.539C323.297 112.575 324.577 111.608 327.162 111.608C328.383 111.596 329.6 111.728 330.79 112.001C330.894 112.018 330.987 112.072 331.054 112.153C331.12 112.233 331.155 112.336 331.151 112.44V113.58C331.151 113.815 331.028 113.953 330.825 113.953H330.743C329.628 113.814 328.506 113.735 327.383 113.718C326.404 113.718 325.979 113.932 325.979 114.542C325.979 114.858 326.272 115.052 326.792 115.348L329.459 116.919C331.172 117.921 331.416 118.903 331.416 119.906C331.407 121.603 330.082 122.96 327.415 122.96Z" fill="#8A2827"/>
<path d="M327.415 123.543C326.139 123.541 324.867 123.403 323.62 123.133C323.384 123.087 323.173 122.96 323.022 122.774C322.871 122.588 322.79 122.355 322.794 122.116V120.943C322.799 120.7 322.9 120.469 323.075 120.301C323.25 120.132 323.485 120.039 323.728 120.043H323.881C324.815 120.155 326.631 120.251 327.233 120.251C328.09 120.251 328.09 120.102 328.09 119.897C328.09 119.841 328.026 119.727 327.479 119.396L324.689 117.745C323.438 117.007 322.691 115.805 322.691 114.521C322.691 112.909 323.464 111.004 327.145 111.004C328.406 110.993 329.663 111.129 330.893 111.409C331.134 111.451 331.353 111.578 331.508 111.767C331.663 111.957 331.745 112.196 331.739 112.44V113.58C331.746 113.704 331.728 113.828 331.685 113.945C331.642 114.061 331.576 114.168 331.49 114.257C331.405 114.347 331.302 114.419 331.187 114.467C331.073 114.515 330.95 114.54 330.825 114.539H330.664C329.575 114.405 328.48 114.329 327.383 114.31C326.692 114.31 326.581 114.43 326.581 114.433C326.57 114.455 326.565 114.479 326.566 114.504C326.729 114.634 326.904 114.749 327.089 114.847L329.759 116.421C331.733 117.575 332.003 118.78 332.003 119.911C331.994 121.576 330.796 123.543 327.415 123.543ZM323.969 122.01C325.103 122.245 326.257 122.366 327.415 122.371C329.547 122.371 330.819 121.444 330.819 119.894C330.819 119.1 330.693 118.314 329.154 117.414L326.484 115.84C325.943 115.527 325.382 115.198 325.382 114.53C325.382 113.12 326.88 113.12 327.374 113.12C328.44 113.133 329.505 113.199 330.564 113.32V112.528C329.446 112.278 328.302 112.158 327.156 112.171C324.251 112.171 323.878 113.431 323.878 114.515C323.878 115.371 324.407 116.198 325.297 116.723L328.09 118.373C328.716 118.751 329.265 119.146 329.265 119.879C329.265 121.406 327.735 121.406 327.233 121.406C326.645 121.406 324.994 121.321 323.969 121.213V122.01Z" fill="#8A2827"/>
<path d="M359.263 122.699C358.118 122.877 356.961 122.969 355.802 122.974C353.159 122.974 351.103 122.286 351.103 118.947V108.598C351.103 108.545 351.114 108.494 351.135 108.446C351.156 108.397 351.186 108.354 351.224 108.317C351.261 108.281 351.306 108.252 351.355 108.233C351.403 108.214 351.455 108.204 351.508 108.205H353.526C353.632 108.203 353.735 108.244 353.811 108.317C353.888 108.391 353.932 108.492 353.934 108.598V118.932C353.934 120.228 354.34 120.621 355.523 120.621H359.269C359.321 120.62 359.374 120.629 359.423 120.648C359.472 120.667 359.517 120.696 359.555 120.732C359.593 120.769 359.623 120.812 359.644 120.861C359.665 120.909 359.676 120.961 359.677 121.013V122.271C359.671 122.543 359.568 122.626 359.263 122.699Z" fill="#8A2827"/>
<path d="M355.802 123.543C353.529 123.543 350.515 123.065 350.515 118.932V108.598C350.517 108.337 350.623 108.087 350.809 107.904C350.995 107.72 351.246 107.618 351.508 107.619H353.526C353.788 107.617 354.04 107.719 354.226 107.903C354.413 108.086 354.519 108.336 354.522 108.598V118.932C354.522 119.941 354.698 120.035 355.523 120.035H359.269C359.531 120.033 359.783 120.135 359.969 120.319C360.156 120.502 360.262 120.752 360.264 121.013V122.271C360.276 122.518 360.19 122.759 360.025 122.944C359.861 123.128 359.63 123.241 359.383 123.259C358.198 123.442 357.001 123.537 355.802 123.543ZM351.69 108.791V118.932C351.69 121.439 352.806 122.371 355.802 122.371C356.901 122.364 357.997 122.281 359.083 122.121V121.207H355.532C354.005 121.207 353.355 120.527 353.355 118.932V108.791H351.69Z" fill="#8A2827"/>
<path d="M378.321 122.819C377.865 122.904 377.402 122.952 376.938 122.96C374.635 122.96 373.706 122.467 373.706 119.832V113.677L371.794 113.402C371.568 113.363 371.386 113.226 371.386 113.009V112.129C371.387 112.077 371.398 112.025 371.419 111.976C371.44 111.928 371.47 111.884 371.508 111.847C371.546 111.811 371.59 111.782 371.64 111.762C371.689 111.743 371.741 111.733 371.794 111.734H373.706V110.125C373.706 109.908 373.891 109.77 374.115 109.732L376.009 109.418H376.092C376.133 109.414 376.174 109.418 376.214 109.431C376.253 109.443 376.29 109.464 376.321 109.492C376.351 109.52 376.376 109.553 376.393 109.591C376.409 109.629 376.418 109.67 376.418 109.711V111.734H378.251C378.357 111.733 378.459 111.774 378.535 111.848C378.611 111.922 378.654 112.024 378.656 112.129V113.302C378.655 113.354 378.644 113.406 378.623 113.454C378.603 113.502 378.572 113.546 378.535 113.582C378.497 113.619 378.453 113.647 378.404 113.667C378.355 113.686 378.303 113.695 378.251 113.695H376.418V119.85C376.418 120.835 376.476 120.952 377.211 120.952H378.292C378.556 120.952 378.721 121.049 378.721 121.245V122.482C378.712 122.664 378.588 122.781 378.321 122.819Z" fill="#8A2827"/>
<path d="M376.937 123.543C374.514 123.543 373.119 122.936 373.119 119.832V114.172L371.709 113.97C371.464 113.947 371.237 113.835 371.069 113.656C370.901 113.476 370.805 113.242 370.798 112.997V112.118C370.799 111.988 370.825 111.86 370.876 111.74C370.926 111.621 371 111.512 371.092 111.421C371.185 111.33 371.294 111.258 371.415 111.209C371.535 111.16 371.664 111.135 371.794 111.136H373.119V110.113C373.125 109.87 373.219 109.639 373.384 109.46C373.549 109.282 373.773 109.169 374.015 109.143L376.091 108.82C376.21 108.816 376.328 108.836 376.439 108.878C376.549 108.92 376.65 108.984 376.736 109.066C376.821 109.148 376.889 109.247 376.935 109.356C376.981 109.464 377.005 109.581 377.005 109.7V111.136H378.25C378.512 111.135 378.764 111.238 378.95 111.422C379.136 111.606 379.242 111.856 379.243 112.118V113.29C379.241 113.551 379.135 113.801 378.949 113.984C378.763 114.167 378.512 114.27 378.25 114.269H377.005V119.838C377.005 119.95 377.005 120.199 377.005 120.351H378.277C378.973 120.351 379.293 120.808 379.293 121.23V122.467C379.293 122.705 379.202 122.934 379.038 123.108C378.874 123.281 378.65 123.385 378.412 123.399C377.925 123.487 377.432 123.536 376.937 123.543ZM371.964 112.824L374.285 113.158V119.832C374.285 122.057 374.849 122.371 376.929 122.371C377.322 122.363 377.715 122.325 378.104 122.259V121.526H377.181C375.898 121.526 375.801 120.858 375.801 119.838V113.097H378.039V112.323H375.801V110.046L374.264 110.298V112.323H371.944L371.964 112.824Z" fill="#8A2827"/>
<path d="M398.909 122.447C397.569 122.774 396.195 122.946 394.815 122.96C391.536 122.96 389.95 121.09 389.95 118.027V116.514C389.95 113.448 391.536 111.584 394.815 111.584C395.469 111.59 396.122 111.635 396.771 111.719V108.243C396.772 108.19 396.783 108.138 396.804 108.09C396.825 108.042 396.855 107.998 396.893 107.962C396.931 107.925 396.976 107.897 397.025 107.877C397.074 107.858 397.127 107.849 397.179 107.85H399.05C399.103 107.849 399.156 107.858 399.205 107.877C399.254 107.897 399.299 107.925 399.337 107.962C399.374 107.998 399.405 108.042 399.426 108.09C399.447 108.138 399.458 108.19 399.459 108.243V121.916C399.459 122.212 399.379 122.329 398.909 122.447ZM396.771 113.844C396.122 113.76 395.469 113.714 394.815 113.706C393.052 113.706 392.638 114.905 392.638 116.514V118.027C392.638 119.639 393.064 120.835 394.815 120.835C395.469 120.84 396.123 120.795 396.771 120.7V113.844Z" fill="#8A2827"/>
<path d="M394.815 123.543C391.348 123.543 389.363 121.532 389.363 118.027V116.514C389.363 112.997 391.348 110.998 394.815 110.998C395.226 110.998 395.696 111.022 396.184 111.065V108.243C396.186 107.981 396.292 107.732 396.479 107.548C396.665 107.365 396.917 107.262 397.179 107.264H399.051C399.313 107.262 399.565 107.365 399.751 107.548C399.938 107.732 400.044 107.981 400.046 108.243V121.916C400.046 122.664 399.547 122.892 399.056 123.015C397.668 123.353 396.244 123.53 394.815 123.543ZM394.815 112.17C391.977 112.17 390.538 113.636 390.538 116.514V118.027C390.538 120.911 391.977 122.37 394.815 122.37C396.146 122.359 397.472 122.194 398.766 121.878C398.801 121.871 398.837 121.861 398.871 121.849V108.436H397.359V112.387L396.695 112.302C396.071 112.221 395.443 112.177 394.815 112.17ZM394.815 121.421C392.051 121.421 392.051 118.865 392.051 118.027V116.514C392.051 115.673 392.051 113.12 394.815 113.12C395.496 113.128 396.177 113.176 396.853 113.264L397.359 113.334V121.178L396.889 121.274C396.202 121.378 395.509 121.427 394.815 121.421ZM394.815 114.293C393.834 114.293 393.226 114.662 393.226 116.514V118.027C393.226 119.876 393.834 120.248 394.815 120.248C395.311 120.248 395.811 120.222 396.184 120.187V114.366C395.693 114.319 395.138 114.293 394.815 114.293Z" fill="#8A2827"/>
<path d="M101.075 43.8365C100.861 29.8203 107.537 20.7546 107.537 20.7546C107.537 20.7546 77.2816 21.1562 54.1844 0H53.9905C31.5601 21.7541 1.28955 22.1645 1.28955 22.1645C1.28955 22.1645 8.22783 31.0455 8.44227 45.0587C8.6567 59.072 -0.249674 75.3978 0.00588528 92.2483C0.120446 99.3268 4.81157 113.059 16.1972 123.13C31.9243 137.04 55.75 146.698 55.75 146.698L56.3375 146.991L56.9426 146.745C56.9426 146.745 80.4012 136.39 95.6936 122.074C106.785 111.699 111.048 97.8642 110.945 90.774C110.678 73.9265 101.287 57.8468 101.075 43.8365Z" fill="url(#paint0_linear_203_5249)"/>
<path d="M56.2053 137.969L55.7177 137.712C55.7177 137.712 35.8076 129.264 22.6654 117.13C13.151 108.337 9.21476 96.34 9.12663 90.1644C8.90632 75.4506 16.3322 61.2028 16.1501 48.9716C15.968 36.7404 11.7439 28.9468 11.7439 28.9468C11.7439 28.9468 35.4316 28.6127 54.1491 9.63428H54.3106C73.598 28.1232 97.2739 27.8067 97.2739 27.8067C97.2739 27.8067 93.3054 35.6941 93.511 47.9341C93.7166 60.174 101.548 74.202 101.771 88.9245C101.865 95.1061 98.3108 107.191 89.0549 116.242C76.2887 128.731 56.7105 137.761 56.7105 137.761L56.2053 137.969Z" fill="#FFDD15"/>
<path d="M53.917 35.4216C54.7248 35.4392 55.797 35.5183 56.4814 36.2071C57.1658 36.8959 57.4214 36.5178 57.9325 36.8871C58.4436 37.2564 58.755 37.7283 59.0693 38.7102C59.3836 39.6921 59.3014 40.9085 59.5099 41.3804C59.7185 41.8523 60.2443 43.2445 59.8037 43.6812C59.3631 44.1179 58.9724 44.7657 58.3114 44.8243C57.8513 44.871 57.3961 44.9583 56.9514 45.0852L56.6283 46.6298C56.6283 46.6298 58.1352 46.4276 58.2909 46.9229C58.4466 47.4183 58.6111 48.1452 58.8784 48.1393C59.1457 48.1335 60.4852 48.1217 61.0403 48.3474C61.5955 48.5731 62.1066 48.6112 62.3123 49.171L62.5208 49.7367C62.5208 49.7367 64.9795 49.1359 66.6803 55.08L71.8619 52.3541C71.8619 52.3541 71.7738 49.1095 72.3613 48.8662C72.9488 48.6229 73.9945 51.1466 73.9945 51.1466L76.9056 50.0298C76.9056 50.0298 76.5971 49.7074 77.4931 48.9864C78.389 48.2654 79.4318 47.6938 79.94 47.6791C80.4481 47.6645 80.9504 47.9136 80.9593 48.5585C80.9681 49.2033 77.9689 50.6102 77.9689 50.6102L77.1171 50.6629L74.2707 52.3014L74.3323 53.0488C74.3323 53.0488 70.0848 55.2647 70.0936 55.7776C70.1024 56.2905 70.9308 57.6534 70.7398 58.3628C70.5489 59.0721 67.9346 59.4795 67.9522 60.7076C67.9698 61.9357 69.2917 62.3841 69.3093 63.6034C69.3269 64.8228 69.1389 66.045 68.102 67.0914C67.0651 68.1377 66.7596 68.1465 66.4511 67.5896C66.0428 67.6365 66.1574 67.915 66.1574 67.915C66.1574 67.915 66.9681 68.3312 67.491 69.6736C68.0387 71.1726 68.2199 72.7803 68.0197 74.3633C67.7877 75.7819 64.5682 75.7731 64.5682 75.7731C65.1306 77.4711 65.3823 79.2562 65.3114 81.0431L66.2866 82.1158V89.8655C66.4909 90.3412 66.6207 90.8453 66.6715 91.3603C66.7302 92.1575 65.9371 92.4975 65.9371 92.4975L66.0252 95.2674C66.5189 96.3824 66.8265 97.5705 66.9358 98.7846C67.0533 100.658 66.8095 100.713 67.1738 101.32C67.538 101.927 68.6014 102.894 68.6836 104.866C68.7659 106.839 67.0328 108.416 67.0328 108.416C67.4931 110.128 67.7369 111.89 67.7583 113.663C69.2447 114.817 71.577 117.13 71.4536 118.077C71.3303 119.023 69.3563 118.997 67.4352 118.789C65.5141 118.581 64.7915 116.942 64.2451 116.948C63.6987 116.954 62.8704 116.215 62.8528 115.09C62.8351 113.964 62.8528 112.13 63.5049 111.573C63.3932 110.773 63.1083 108.762 63.1083 108.762C63.1083 108.762 61.9891 108.076 61.6601 106.194C61.3312 104.313 62.2476 102.149 61.901 101.724C61.5544 101.299 60.4675 100.482 60.4529 99.2565C60.4382 98.0313 60.2854 95.3641 60.2854 95.3641C60.2854 95.3641 59.4835 95.1912 59.4659 94.1594C59.4482 93.1277 59.7449 92.65 59.7449 92.65C59.7449 92.65 56.8692 85.8207 56.264 82.6376C55.844 81.5179 56.0408 80.9991 55.2036 82.277C54.3664 83.555 54.2783 84.0738 54.1873 84.7245C54.0962 85.3751 54.0844 88.2622 53.7231 90.5132C53.3618 92.7643 51.4202 98.2072 51.2733 98.8637C51.1264 99.5203 51.0824 102.343 50.7357 103.049C50.9531 103.943 51.1646 104.544 51.0882 105.719C51.0546 106.071 50.9383 106.409 50.749 106.707C50.5596 107.005 50.3025 107.254 49.9984 107.434C49.9984 107.434 49.643 113.539 49.7546 114.345C49.8662 115.151 50.0337 116.259 49.4873 116.506C48.9409 116.752 47.8717 116.617 47.8717 116.617C47.8717 116.617 45.6304 118.889 43.5742 119.056C41.518 119.223 41.1009 118.469 41.6795 117.429C42.2582 116.388 44.8226 115.084 45.1869 112.64C45.5511 110.195 45.8537 110.236 45.9536 109.767C46.0534 109.298 45.322 108.281 45.2045 107.197C44.7404 106.071 44.4848 106.215 44.6728 105.177C44.8381 104.454 45.1316 103.766 45.5394 103.146C45.5394 103.146 45.3161 97.7969 46.0622 93.84C45.5592 91.0941 45.1955 88.3247 44.9724 85.5422C44.8373 83.0977 44.7345 82.7724 46.1327 82.0045C46.1475 80.8272 46.064 79.6507 45.8831 78.4872L44.7492 80.9376L43.7475 81.002L44.8549 74.3603C44.3847 74.7472 43.8082 74.9832 43.2011 75.0374C42.2465 75.1048 41.5327 74.3603 41.0362 74.5098C40.5398 74.6593 40.1286 75.2719 39.6292 75.2748C39.1298 75.2777 38.2838 72.7629 37.573 72.2939C36.8621 71.825 36.4509 71.611 37.053 70.9896C37.6552 70.3683 38.9859 69.231 40.0375 68.9379C41.0891 68.6448 41.9939 68.5393 41.9292 67.786C41.7618 66.2355 39.2297 65.8017 39.2091 64.2541C39.1886 62.7065 40.0698 60.8571 41.1949 58.9783C42.3199 57.0995 42.314 56.2378 43.0543 55.5666C43.7945 54.8953 43.7035 54.9071 43.8386 54.06C43.9737 53.2129 44.5494 51.129 45.6451 50.5604C46.7408 49.9917 47.3547 50.2497 47.8071 50.109C48.2595 49.9683 48.2918 49.344 49.3463 49.0978L50.4067 48.8457C50.4067 48.8457 51.1881 47.6176 51.8343 46.7647C51.7168 45.9176 51.5024 45.1262 51.053 45.1321C50.6036 45.1379 49.9485 45.6128 49.4491 45.4809C48.9498 45.349 48.4827 44.88 48.4563 43.3266C48.4298 41.7731 48.7206 40.6505 49.2964 39.0033C49.8721 37.3561 50.3803 35.3542 53.917 35.4216Z" fill="#231F20"/>
<path d="M37.0587 33.0913C36.8225 32.8178 36.5272 32.6014 36.1951 32.4582C35.9016 32.3355 35.5848 32.2785 35.2668 32.2911C34.9389 32.3087 34.6154 32.3739 34.3063 32.4845C34.0125 32.5842 33.6777 32.7161 33.2635 32.9007C32.9903 33.0268 32.7847 33.1147 32.6437 33.1675C32.5311 33.2125 32.4139 33.2449 32.2941 33.2642C32.197 33.282 32.0975 33.282 32.0004 33.2642C31.9177 33.2403 31.8441 33.1924 31.7889 33.1264C31.7373 33.0724 31.7012 33.0056 31.6841 32.9329C31.6671 32.8603 31.6698 32.7844 31.692 32.7132C31.7712 32.4944 31.9074 32.3006 32.0865 32.1517C32.2657 32.0029 32.4813 31.9043 32.7113 31.8661C32.9447 31.8775 33.173 31.9385 33.381 32.0449C33.5559 32.1238 33.7423 32.1743 33.9332 32.1944C34.0363 32.2039 34.1402 32.192 34.2383 32.1591C34.3365 32.1263 34.4266 32.0734 34.5031 32.0038C34.596 31.9302 34.6697 31.8352 34.7177 31.727C34.7658 31.6188 34.7869 31.5006 34.7792 31.3825C34.7679 31.1545 34.6788 30.9373 34.5266 30.767C34.3592 30.5943 34.1597 30.4558 33.9391 30.3595C33.6803 30.2475 33.4017 30.1877 33.1196 30.1837C32.7849 30.173 32.4513 30.2288 32.1384 30.3478C31.7668 30.48 31.4224 30.6787 31.1221 30.934C30.7303 31.23 30.4084 31.6082 30.1792 32.042C29.9792 32.4141 29.9051 32.8407 29.9677 33.2583C30.0371 33.6723 30.2306 34.0555 30.5228 34.3575C30.8034 34.6801 31.1734 34.9126 31.5862 35.0257C31.9722 35.1201 32.3752 35.1201 32.7612 35.0257C33.2033 34.92 33.632 34.7647 34.039 34.5626C34.3052 34.4363 34.5778 34.3238 34.8556 34.2256C35.0145 34.1733 35.1834 34.1583 35.3491 34.1816C35.5004 34.2066 35.6378 34.2846 35.7368 34.4014C35.8088 34.4753 35.8609 34.5663 35.8881 34.6657C35.9154 34.7652 35.9169 34.8699 35.8925 34.97C35.8242 35.2417 35.6632 35.4811 35.4372 35.6471C35.2869 35.7785 35.1078 35.8728 34.9143 35.9226C34.7606 35.9572 34.601 35.9572 34.4473 35.9226C34.2568 35.8654 34.0727 35.7888 33.898 35.694C33.7134 35.5863 33.5083 35.5184 33.2958 35.4947C33.1932 35.4842 33.0895 35.4946 32.991 35.5254C32.8925 35.5561 32.8013 35.6065 32.723 35.6735C32.628 35.7454 32.5506 35.8379 32.4967 35.944C32.4427 36.0501 32.4136 36.1671 32.4116 36.2861C32.4125 36.5125 32.5009 36.7298 32.6584 36.8928C32.9302 37.1697 33.2692 37.3716 33.6424 37.479C33.9274 37.5694 34.2246 37.6159 34.5237 37.6168C34.6385 37.6171 34.7533 37.6102 34.8673 37.5962C35.4878 37.4966 36.0678 37.2255 36.5417 36.8137C36.9553 36.495 37.2875 36.0832 37.5111 35.6119C37.7073 35.1996 37.7679 34.7359 37.6844 34.2871C37.5995 33.8353 37.3817 33.419 37.0587 33.0913Z" fill="#231F20"/>
<path d="M43.2598 31.277C43.0222 31.2139 42.7696 31.2422 42.5519 31.3561L39.8847 32.5784L39.1855 31.2506L41.5355 30.1837C41.6443 30.1398 41.7432 30.0747 41.8265 29.9922C41.9097 29.9096 41.9756 29.8113 42.0202 29.703C42.0566 29.602 42.0702 29.4942 42.0601 29.3873C42.0499 29.2804 42.0162 29.177 41.9614 29.0846C41.9142 28.9877 41.848 28.9013 41.7668 28.8303C41.6855 28.7594 41.5909 28.7053 41.4885 28.6713C41.255 28.6062 41.0052 28.6346 40.7923 28.7504L38.4424 29.8261L37.8549 28.7417L40.4075 27.5692C40.5212 27.5241 40.6247 27.4568 40.712 27.3712C40.7992 27.2857 40.8685 27.1836 40.9157 27.071C40.9795 26.8588 40.9563 26.63 40.8511 26.4349C40.7439 26.2455 40.5702 26.1024 40.3635 26.0334C40.1266 25.9736 39.8761 26.0017 39.6585 26.1125L36.3626 27.622C36.1759 27.7058 36.0088 27.8276 35.8721 27.9796C35.7561 28.1337 35.6978 28.3235 35.7076 28.516C35.7268 28.7227 35.791 28.9227 35.8956 29.1022L38.3924 33.8387C38.5154 34.1197 38.7383 34.3452 39.0181 34.4718C39.1183 34.5109 39.2249 34.5308 39.3324 34.5304C39.5361 34.5238 39.7362 34.4748 39.9199 34.3868L43.2892 32.8363C43.4039 32.7951 43.5089 32.7306 43.5974 32.6469C43.6859 32.5631 43.7559 32.4619 43.8032 32.3498C43.8436 32.2457 43.8598 32.1339 43.8506 32.0227C43.8414 31.9116 43.8072 31.8039 43.7504 31.7079C43.6497 31.5057 43.4736 31.351 43.2598 31.277Z" fill="#231F20"/>
<path d="M49.8281 28.5863C49.7703 28.3605 49.6267 28.1659 49.4276 28.0439C49.2286 27.9219 48.9898 27.882 48.7618 27.9327C48.6408 27.9511 48.5265 27.9997 48.4294 28.074C48.3324 28.1483 48.2557 28.2459 48.2066 28.3577C48.1376 28.5344 48.1007 28.722 48.0979 28.9117C48.0856 29.2299 47.9759 29.5368 47.7836 29.791C47.5885 30.0142 47.3234 30.165 47.0316 30.2189C46.7513 30.2909 46.456 30.2786 46.1827 30.1837C45.897 30.0772 45.6516 29.8846 45.4806 29.6327C45.2273 29.2813 45.0474 28.8825 44.9519 28.4603C44.7533 27.8796 44.7482 27.2504 44.9372 26.6665C45.0161 26.4647 45.1447 26.2859 45.311 26.1466C45.4773 26.0073 45.676 25.9119 45.8889 25.8693C46.1492 25.8027 46.4235 25.816 46.6762 25.9073C46.9535 26.027 47.1989 26.2097 47.3929 26.4408C47.5284 26.6023 47.6855 26.7443 47.86 26.8629C48.0496 26.9627 48.2705 26.9858 48.4768 26.9274C48.5906 26.904 48.6974 26.8548 48.7891 26.7836C48.8808 26.7125 48.9548 26.6213 49.0056 26.517C49.112 26.3214 49.1373 26.092 49.0761 25.878C48.9567 25.499 48.7265 25.1642 48.4151 24.9167C48.0434 24.5982 47.5983 24.3766 47.1197 24.2718C46.5767 24.1369 46.0089 24.1369 45.4659 24.2718C45.0057 24.3795 44.5721 24.5789 44.1911 24.858C43.8154 25.1258 43.5059 25.4757 43.2863 25.881C43.0543 26.3061 42.9161 26.7758 42.881 27.2586C42.8319 28.1529 43.0193 29.0444 43.4244 29.8437C43.5641 30.1398 43.7429 30.4158 43.9561 30.6644C44.1559 30.9174 44.3891 31.1422 44.6493 31.3327C44.9191 31.5272 45.216 31.6812 45.5306 31.7899C45.8399 31.8892 46.1633 31.9377 46.4882 31.9336C46.8385 31.9324 47.1876 31.8901 47.528 31.8075C47.9829 31.7142 48.4119 31.5231 48.7853 31.2477C49.1029 31.0115 49.3679 30.712 49.5637 30.3684C49.7205 30.0758 49.8258 29.7586 49.8751 29.4305C49.9148 29.154 49.9019 28.8726 49.8369 28.601L49.8281 28.5863Z" fill="#231F20"/>
<path d="M56.7927 24.1311C56.801 23.834 56.6961 23.5449 56.4989 23.3221C56.4045 23.2288 56.2912 23.1567 56.1666 23.1107C56.0419 23.0647 55.9089 23.0458 55.7763 23.0554C55.6459 23.0578 55.5177 23.0889 55.4009 23.1467C55.284 23.2045 55.1815 23.2874 55.1007 23.3895C54.9203 23.6294 54.8422 23.9307 54.8833 24.2278L55.0743 27.6982C55.1298 28.1126 55.0505 28.5338 54.8481 28.8999C54.7381 29.0311 54.5985 29.1344 54.4407 29.2011C54.2828 29.2679 54.1114 29.2962 53.9404 29.2838C53.6763 29.3117 53.4096 29.2649 53.1708 29.149C52.9983 29.0395 52.8663 28.877 52.7948 28.6859C52.6949 28.3949 52.6395 28.0906 52.6303 27.7832L52.4394 24.3333C52.4405 24.0419 52.3362 23.7599 52.1456 23.539C52.0511 23.4428 51.9367 23.3683 51.8104 23.3207C51.6841 23.2731 51.5489 23.2536 51.4142 23.2635C51.2836 23.2662 51.1552 23.2979 51.0384 23.3561C50.9215 23.4144 50.8191 23.4979 50.7386 23.6006C50.5634 23.8394 50.4876 24.1367 50.5271 24.4301L50.7092 27.8037C50.7234 28.2866 50.8095 28.7647 50.9648 29.2223C51.089 29.6109 51.3121 29.9606 51.6122 30.2375C51.9124 30.5144 52.2793 30.7089 52.6773 30.8021C53.0547 30.8893 53.4414 30.9307 53.8288 30.9252C53.9257 30.9252 54.0256 30.9252 54.1225 30.9252C54.5435 30.9152 54.9596 30.8339 55.3533 30.6849C55.7103 30.5506 56.0333 30.3394 56.2992 30.0664C56.5889 29.7491 56.7913 29.3624 56.8867 28.9438C56.9768 28.4697 57.0044 27.9859 56.9689 27.5047L56.7927 24.1311Z" fill="#231F20"/>
<path d="M63.6311 29.284C63.4947 28.9546 63.3296 28.6378 63.1376 28.3373C63.0549 28.2092 62.9636 28.0868 62.8644 27.9709C63.2314 27.8918 63.5752 27.7293 63.869 27.4961C64.259 27.1501 64.5027 26.6692 64.5505 26.1507C64.5961 25.8782 64.5882 25.5995 64.527 25.33C64.4739 25.0588 64.3616 24.8027 64.198 24.5797C63.891 24.1828 63.4581 23.9017 62.9702 23.7824C62.701 23.7188 62.4283 23.6709 62.1535 23.6388L59.9181 23.3604C59.7668 23.3286 59.6105 23.3281 59.459 23.3589C59.3074 23.3896 59.1638 23.451 59.0369 23.5392C58.8081 23.7441 58.6689 24.0303 58.6492 24.3364L57.8766 29.6973C57.8209 29.9771 57.8656 30.2676 58.0029 30.5179C58.0747 30.6349 58.173 30.7334 58.2898 30.8056C58.4066 30.8779 58.5387 30.9219 58.6756 30.9342C58.8094 30.9531 58.9457 30.9432 59.0754 30.9053C59.2051 30.8674 59.3252 30.8023 59.4276 30.7143C59.639 30.5061 59.7666 30.2276 59.7859 29.9317L60.065 27.9533L60.2912 27.9826C60.4592 27.9947 60.6231 28.0405 60.7729 28.1174C60.9108 28.2076 61.0263 28.3279 61.1107 28.4692C61.2658 28.7241 61.3966 28.993 61.5014 29.2723L61.9185 30.2864L62.0801 30.6645L62.1565 30.8345C62.2299 30.9829 62.3294 31.1169 62.4502 31.2302C62.5968 31.3555 62.7782 31.4332 62.9702 31.4529C63.0113 31.4529 63.0642 31.4529 63.117 31.4529C63.2325 31.4543 63.3472 31.4334 63.4548 31.3914C63.5947 31.3393 63.7191 31.2525 63.8161 31.1393C63.9182 31.0319 63.9849 30.8959 64.0071 30.7495C64.0217 30.5409 63.9937 30.3315 63.9248 30.134C63.8473 29.844 63.7491 29.56 63.6311 29.284ZM62.4385 26.4028C62.3264 26.4989 62.1864 26.5565 62.039 26.5669C61.7769 26.5941 61.5124 26.5882 61.2517 26.5493L60.2912 26.4262L60.4939 25.0311L61.4955 25.1571C61.7762 25.1713 62.0527 25.2297 62.3151 25.33C62.4263 25.3977 62.5141 25.4977 62.5666 25.6167C62.6192 25.7356 62.6339 25.8678 62.6088 25.9954C62.6045 26.1475 62.5438 26.2927 62.4385 26.4028Z" fill="#231F20"/>
<path d="M67.3998 24.5327C67.2729 24.4978 67.1401 24.4907 67.0102 24.512C66.8804 24.5332 66.7568 24.5823 66.6478 24.6558C66.407 24.8307 66.2363 25.0852 66.166 25.3739L64.5827 30.7055C64.4912 30.9847 64.4985 31.2868 64.6033 31.5613C64.6608 31.6773 64.7433 31.7793 64.8448 31.8598C64.9464 31.9404 65.0645 31.9976 65.1908 32.0273C65.2721 32.0496 65.3562 32.0604 65.4405 32.0596C65.6217 32.0598 65.7992 32.0079 65.9516 31.9101C66.1992 31.7393 66.3716 31.4801 66.4333 31.1861L68.0196 25.8546C68.1215 25.5752 68.1152 25.2679 68.0019 24.9929C67.9393 24.8785 67.8533 24.7785 67.7496 24.6993C67.6459 24.62 67.5267 24.5633 67.3998 24.5327Z" fill="#231F20"/>
<path d="M73.7182 28.6742C73.9486 28.7868 74.2132 28.8077 74.4585 28.7328C74.5723 28.6959 74.677 28.6352 74.7656 28.5549C74.8543 28.4745 74.9248 28.3764 74.9725 28.2668C75.0203 28.1644 75.0465 28.0533 75.0495 27.9403C75.0525 27.8274 75.0323 27.7151 74.9902 27.6102C74.8751 27.3803 74.6733 27.2053 74.4291 27.1237L70.3872 25.4852C70.1552 25.3789 69.8928 25.3581 69.6469 25.4266C69.5343 25.4656 69.4311 25.5278 69.3441 25.6091C69.2571 25.6904 69.1881 25.789 69.1417 25.8985C69.0922 26.0016 69.0656 26.1142 69.0636 26.2285C69.0616 26.3428 69.0842 26.4561 69.1299 26.5609C69.2466 26.7914 69.449 26.9671 69.6939 27.0504L70.819 27.5047L68.7628 31.9335C68.689 32.0587 68.6408 32.1973 68.6212 32.3412C68.6015 32.4851 68.6107 32.6315 68.6482 32.7718C68.6814 32.8995 68.7453 33.0173 68.8343 33.1148C68.9234 33.2123 69.0349 33.2868 69.1593 33.3316C69.2758 33.3835 69.4019 33.4104 69.5294 33.4107C69.6682 33.4094 69.8052 33.3795 69.9319 33.3228C70.2002 33.1813 70.4087 32.9483 70.5194 32.6663L72.5756 28.217L73.7241 28.683L73.7182 28.6742Z" fill="#231F20"/>
<path d="M80.6124 30.7993C80.4942 30.7123 80.3557 30.6568 80.21 30.6381C80.0824 30.6272 79.9539 30.6401 79.831 30.6762C79.7079 30.7089 79.5872 30.75 79.4697 30.7993L77.1609 31.7783L77.4223 29.7969C77.4665 29.5256 77.4872 29.251 77.484 28.9762C77.4736 28.8599 77.4357 28.7477 77.3734 28.6489C77.3111 28.55 77.2262 28.4673 77.1256 28.4076C76.9275 28.2744 76.6861 28.221 76.45 28.2581C76.218 28.2946 76.0082 28.4171 75.8625 28.601C75.7744 28.7257 75.7133 28.8675 75.6834 29.0172C75.6305 29.2343 75.5923 29.4546 75.5688 29.6767L75.2339 32.6722L73.8709 34.4103C73.6736 34.6307 73.563 34.915 73.5596 35.2105C73.5672 35.3413 73.6062 35.4683 73.6731 35.581C73.7401 35.6937 73.8331 35.7888 73.9444 35.8583C74.0976 35.9658 74.28 36.0241 74.4673 36.0253C74.5415 36.0252 74.6154 36.0164 74.6876 35.9989C74.9839 35.92 75.2429 35.7395 75.419 35.4889L76.7908 33.7538L79.7987 32.5491C80.002 32.4786 80.1986 32.3903 80.3862 32.2853C80.5502 32.2078 80.694 32.0934 80.8063 31.9512C80.932 31.7776 80.9866 31.5627 80.959 31.3503C80.9468 31.2383 80.9093 31.1305 80.8492 31.035C80.7892 30.9396 80.7082 30.859 80.6124 30.7993Z" fill="#231F20"/>
<path d="M56.1552 138.881L55.2739 138.412C55.1388 138.362 35.1494 129.801 22.0542 117.693C12.1021 108.486 8.3451 96.1848 8.24816 90.1615C8.1336 82.3562 10.1105 74.7883 12.0228 67.4695C13.7353 60.9011 15.3597 54.6931 15.254 48.963C15.0719 37.0806 11.0035 29.372 10.9594 29.2958L10.3367 28.1409L11.7173 28.1233C11.9494 28.1233 35.261 27.5782 53.4909 9.0863L53.7406 8.8313H54.4955L54.9068 9.08044C73.7065 27.1033 97.0035 27.0008 97.2414 27.0008L98.6191 26.9802L98.0316 28.1527C97.9963 28.2289 94.1571 36.0401 94.3363 47.9254C94.4214 53.6556 96.2339 59.8166 98.155 66.3381C100.285 73.6041 102.491 81.1193 102.611 88.9071C102.702 94.9391 99.3211 107.334 89.6569 116.799C76.9318 129.247 57.2597 138.392 57.0511 138.488L56.1552 138.881ZM13.0568 29.668C14.2318 32.2414 16.8755 39.1616 17.0106 48.9337C17.0958 54.8778 15.4537 61.1766 13.7148 67.8535C11.826 75.0726 9.86964 82.5409 9.99007 90.1293C10.087 95.8946 13.6913 107.683 23.2762 116.544C36.1452 128.447 55.8644 136.888 56.0612 136.973L56.2286 137.064L56.3314 137.023C56.5077 136.938 75.9096 127.919 88.4173 115.682C97.7261 106.567 100.975 94.6929 100.89 88.9305C100.775 81.3362 98.6014 73.9236 96.5012 66.7514C94.5566 60.1273 92.7177 53.8725 92.6325 47.9313C92.4798 38.1563 94.912 31.1745 95.993 28.563C90.7878 28.3197 70.8924 26.2915 54.2488 10.7335C38.0927 26.7282 18.2561 29.2694 13.0568 29.668Z" fill="url(#paint1_linear_203_5249)"/>
<path d="M44.3495 124.63C44.3553 124.83 44.2966 125.026 44.1821 125.19C44.0622 125.366 43.8909 125.5 43.6915 125.574C43.4587 125.665 43.2101 125.709 42.9601 125.703C42.7634 125.711 42.5663 125.697 42.3726 125.662C42.2019 125.631 42.0372 125.572 41.885 125.489V124.674C42.2255 124.861 42.6068 124.962 42.9954 124.967C43.1031 124.975 43.2109 124.953 43.3067 124.903C43.3369 124.886 43.3621 124.861 43.3796 124.831C43.3971 124.801 43.4064 124.767 43.4066 124.733C43.4086 124.71 43.4057 124.686 43.3981 124.664C43.3905 124.642 43.3784 124.621 43.3625 124.604C43.3391 124.56 43.295 124.539 43.2392 124.495C43.0844 124.416 42.9256 124.344 42.7633 124.282C42.5804 124.2 42.4053 124.102 42.2404 123.988C42.1346 123.899 42.0477 123.789 41.9849 123.666C41.9278 123.523 41.9008 123.369 41.9056 123.215C41.8994 123.073 41.9287 122.932 41.9907 122.805C42.0528 122.677 42.1457 122.567 42.261 122.485C42.5524 122.3 42.8944 122.211 43.2392 122.23C43.6267 122.226 44.0104 122.306 44.3642 122.464L44.0705 123.171C43.7994 123.049 43.5091 122.977 43.2127 122.957C43.1191 122.95 43.0257 122.973 42.9454 123.021C42.9198 123.037 42.8984 123.059 42.883 123.085C42.8677 123.111 42.8589 123.14 42.8573 123.171C42.8598 123.209 42.8711 123.247 42.8905 123.28C42.9098 123.314 42.9367 123.343 42.9689 123.364C43.1563 123.474 43.3529 123.567 43.5564 123.643C43.7992 123.734 44.0166 123.882 44.1909 124.073C44.3008 124.238 44.3562 124.433 44.3495 124.63Z" fill="#231F20"/>
<path d="M44.8931 125.662V122.25H45.8624V125.662H44.8931Z" fill="#231F20"/>
<path d="M49.9982 125.662H48.741L47.4514 123.259H47.4279C47.4514 123.646 47.472 123.924 47.472 124.118V125.662H46.6172V122.25H47.8744L49.164 124.631C49.1405 124.287 49.1287 124.008 49.1287 123.795V122.25H49.9865L49.9982 125.662Z" fill="#231F20"/>
<path d="M52.3305 122.96C52.2238 122.957 52.1185 122.983 52.0251 123.035C51.9317 123.086 51.8537 123.161 51.7988 123.253C51.6622 123.471 51.5955 123.726 51.6079 123.983C51.6079 124.645 51.8664 124.967 52.3863 124.967C52.5414 124.968 52.6957 124.946 52.8445 124.903C52.9958 124.864 53.144 124.814 53.2881 124.753V125.548C52.9663 125.661 52.6276 125.718 52.2864 125.718C51.8347 125.743 51.3913 125.589 51.0527 125.29C50.7482 124.925 50.5967 124.456 50.6297 123.983C50.6224 123.663 50.6919 123.346 50.8324 123.059C50.9575 122.795 51.1631 122.578 51.4199 122.438C51.6986 122.286 52.0132 122.212 52.3305 122.224C52.711 122.215 53.0884 122.295 53.432 122.458L53.1383 123.188C53.013 123.126 52.8822 123.076 52.7476 123.039C52.6139 122.99 52.4729 122.963 52.3305 122.96Z" fill="#231F20"/>
<path d="M56.0905 125.662H53.9785V122.25H56.0905V122.992H54.9332V123.528H56.0024V124.258H54.9332V124.903H56.0905V125.662Z" fill="#231F20"/>
<path d="M59.8947 125.662H58.9253V123.871C58.9253 123.657 58.9253 123.443 58.9253 123.27C58.8695 123.335 58.7931 123.399 58.7021 123.484L58.3026 123.807L57.8032 123.221L59.0252 122.256H59.8829L59.8947 125.662Z" fill="#231F20"/>
<path d="M63.255 123.816C63.255 124.481 63.0994 124.988 62.8115 125.281C62.4045 125.598 61.8927 125.751 61.378 125.709C61.2103 125.715 61.0424 125.708 60.8757 125.689V124.959C61.0155 124.983 61.1568 124.998 61.2987 125.003C61.5787 125.022 61.8572 124.947 62.0889 124.789C62.1863 124.713 62.2639 124.615 62.315 124.502C62.3662 124.39 62.3894 124.267 62.3826 124.144H62.3738C62.3301 124.24 62.2694 124.327 62.1946 124.402C62.1244 124.451 62.0457 124.487 61.9626 124.507C61.8572 124.536 61.7486 124.55 61.6394 124.551C61.5048 124.559 61.3702 124.536 61.2452 124.486C61.1203 124.435 61.0081 124.357 60.9168 124.258C60.732 124.028 60.6408 123.737 60.6613 123.443C60.6515 123.278 60.6759 123.113 60.7331 122.958C60.7902 122.802 60.8787 122.66 60.9932 122.541C61.1167 122.43 61.261 122.344 61.4178 122.289C61.5747 122.235 61.7409 122.211 61.9068 122.221C62.0965 122.213 62.2857 122.247 62.4605 122.321C62.6354 122.395 62.7914 122.507 62.9172 122.649C63.1651 122.986 63.2848 123.399 63.255 123.816ZM61.9214 122.96C61.8734 122.955 61.825 122.962 61.7804 122.981C61.7359 122.999 61.6965 123.028 61.6659 123.065C61.5905 123.163 61.5548 123.285 61.566 123.408C61.5634 123.522 61.594 123.634 61.6541 123.731C61.6857 123.767 61.7251 123.795 61.7694 123.814C61.8137 123.833 61.8616 123.842 61.9097 123.839C62.0125 123.836 62.111 123.798 62.1887 123.731C62.2614 123.656 62.3015 123.556 62.3004 123.452C62.3055 123.328 62.2659 123.207 62.1887 123.109C62.1628 123.063 62.1247 123.025 62.0787 122.999C62.0327 122.972 61.9804 122.959 61.9273 122.96H61.9214Z" fill="#231F20"/>
<path d="M66.1633 123.816C66.1633 124.481 66.0076 124.988 65.7198 125.281C65.3127 125.598 64.801 125.751 64.2863 125.709C64.1186 125.715 63.9506 125.708 63.784 125.689V124.959C63.9238 124.983 64.0651 124.998 64.207 125.003C64.487 125.022 64.7654 124.947 64.9971 124.789C65.0946 124.713 65.1722 124.615 65.2233 124.502C65.2745 124.39 65.2976 124.267 65.2909 124.144H65.2586C65.2148 124.24 65.1541 124.327 65.0794 124.402C65.0089 124.45 64.9303 124.486 64.8473 124.507C64.7419 124.536 64.6334 124.55 64.5242 124.551C64.3896 124.559 64.2549 124.536 64.13 124.486C64.005 124.435 63.8929 124.357 63.8016 124.258C63.6168 124.028 63.5256 123.737 63.546 123.443C63.5363 123.278 63.5607 123.113 63.6178 122.958C63.6749 122.802 63.7635 122.66 63.878 122.541C64.0014 122.43 64.1458 122.344 64.3026 122.289C64.4594 122.235 64.6256 122.211 64.7915 122.221C64.9813 122.213 65.1705 122.247 65.3453 122.321C65.5201 122.395 65.6762 122.507 65.802 122.649C66.0582 122.982 66.1864 123.396 66.1633 123.816ZM64.8297 122.96C64.7817 122.955 64.7333 122.962 64.6887 122.981C64.6441 122.999 64.6048 123.028 64.5741 123.065C64.4988 123.163 64.4631 123.285 64.4743 123.408C64.4717 123.522 64.5023 123.634 64.5624 123.731C64.594 123.767 64.6334 123.795 64.6777 123.814C64.7219 123.833 64.7699 123.842 64.818 123.839C64.9206 123.835 65.0189 123.797 65.097 123.731C65.1697 123.656 65.2098 123.556 65.2086 123.452C65.2137 123.328 65.1741 123.207 65.097 123.109C65.0706 123.062 65.0316 123.023 64.9844 122.997C64.9373 122.971 64.8837 122.958 64.8297 122.96Z" fill="#231F20"/>
<path d="M69.1652 124.997H68.7775V125.662H67.8316V124.997H66.4187V124.332L67.8874 122.25H68.7687V124.302H69.1564L69.1652 124.997ZM67.8316 124.311V123.622C67.8331 123.55 67.8409 123.479 67.8551 123.408H67.8199C67.7714 123.53 67.7083 123.645 67.6319 123.751L67.2412 124.311H67.8316Z" fill="#231F20"/>
<defs>
<linearGradient id="paint0_linear_203_5249" x1="-0.325287" y1="74.2424" x2="110.608" y2="72.6706" gradientUnits="userSpaceOnUse">
<stop stop-color="#361211"/>
<stop offset="0.08" stop-color="#5A0B0C"/>
<stop offset="0.53" stop-color="#EA2227"/>
<stop offset="0.9" stop-color="#5A0B0C"/>
<stop offset="1" stop-color="#361211"/>
</linearGradient>
<linearGradient id="paint1_linear_203_5249" x1="55.4384" y1="136.305" x2="55.4384" y2="11.2465" gradientUnits="userSpaceOnUse">
<stop stop-color="#431112"/>
<stop offset="0.53" stop-color="#EA2227"/>
<stop offset="1" stop-color="#431112"/>
</linearGradient>
</defs>
</svg>
